<?xml version="1.0" standalone="no"?>
<!DOCTYPE svg PUBLIC "-//W3C//DTD SVG 20010904//EN"
 "http://www.w3.org/TR/2001/REC-SVG-20010904/DTD/svg10.dtd">
<svg version="1.0" xmlns="http://www.w3.org/2000/svg"
 width="558.000000pt" height="732.000000pt" viewBox="0 0 558.000000 732.000000"
 preserveAspectRatio="xMidYMid meet">

<g transform="translate(0.000000,732.000000) scale(0.100000,-0.100000)"
fill="#000000" stroke="none">
<path d="M0 3660 l0 -3660 2790 0 2790 0 0 3660 0 3660 -2790 0 -2790 0 0
-3660z m2847 2349 c354 -48 625 -205 878 -510 74 -89 203 -326 250 -461 120
-342 178 -780 155 -1178 -5 -95 -12 -175 -14 -177 -2 -2 -7 25 -10 59 -18 160
-72 389 -129 553 -33 95 -126 280 -184 368 -204 307 -490 510 -818 581 -146
32 -247 36 -902 36 l-663 0 0 370 0 370 679 0 c425 0 709 -4 758 -11z m2665
-2919 c-16 -310 -49 -537 -113 -795 -199 -798 -619 -1444 -1199 -1846 -321
-223 -653 -346 -1053 -393 -27 -3 -740 -6 -1585 -6 l-1537 0 -3 364 -2 365
1552 4 c1535 3 1555 3 1686 25 496 80 928 306 1302 681 164 165 323 369 430
551 24 41 55 95 70 120 15 25 47 88 72 140 186 385 300 775 353 1205 8 66 16
124 17 130 0 5 6 -66 11 -160 7 -118 7 -235 -1 -385z"/>
</g>
</svg>
